<?xml version="1.0" encoding="UTF-8"?>
<svg version="1.1" xmlns="http://www.w3.org/2000/svg" width="1024" height="1024">
<path d="M0 0 C337.92 0 675.84 0 1024 0 C1024 337.92 1024 675.84 1024 1024 C686.08 1024 348.16 1024 0 1024 C0 686.08 0 348.16 0 0 Z " fill="#FEFEFE" transform="translate(0,0)"/>
<path d="M0 0 C9.81576088 1.47970352 19.60872927 3.08163846 29.3984375 4.72265625 C30.97983321 4.98707408 32.56124432 5.25139981 34.14266968 5.51564026 C37.44392533 6.06731531 40.74511704 6.61937069 44.04626465 7.17169189 C51.15006964 8.35991757 58.2546953 9.54321534 65.35928917 10.72671318 C69.39394325 11.39887433 73.4285344 12.07141299 77.46313477 12.74389648 C83.54767142 13.75800806 89.63222925 14.77199252 95.71680546 15.78586674 C100.39584542 16.5655396 105.07487771 17.34525857 109.75390625 18.125 C110.69637899 18.28205854 111.63885174 18.43911709 112.60988426 18.60093498 C125.39460362 20.73153032 138.17900651 22.86401452 150.96313477 24.99815369 C157.9331212 26.16169189 164.90320227 27.32466275 171.87330246 28.48751926 C176.61159574 29.27807496 181.34983908 30.06892713 186.08795166 30.86056519 C190.54061992 31.60449574 194.9934009 32.34774744 199.44629097 33.0903492 C201.18525268 33.38038101 202.92418903 33.67056493 204.66309929 33.96090508 C214.64709052 35.62718664 224.63457462 37.26885436 234.62866211 38.87353516 C236.57124498 39.18631454 238.51382617 39.49910437 240.45640564 39.81190491 C244.11229252 40.40035561 247.76899032 40.98334357 251.42628479 41.56297302 C272.83160099 44.98560303 293.7833474 50.12079621 314.7878418 55.44311523 C322.58706266 57.41717348 330.40635763 59.27372258 338.25 61.0625 C340.38159813 61.55430751 342.51310933 62.04649191 344.64453125 62.5390625 C347.85615704 63.28093072 351.06872758 64.01525464 354.28662109 64.72949219 C369.47082486 68.10776892 381.01966419 71.03776156 391.85546875 82.8125 C393.74012749 84.73492058 395.66772835 86.46548049 397.70703125 88.21875 C402.96073498 92.7706254 407.77676891 97.72716543 412.64453125 102.68359375 C416.6042827 106.6867794 420.6500242 110.48520976 424.91503906 114.15966797 C428.96026777 117.73026914 432.78795262 121.52113175 436.625 125.3125 C437.85476563 126.49875977 437.85476563 126.49875977 439.109375 127.70898438 C449.47992526 137.97116072 453.61926297 148.60427117 457.59570312 162.48046875 C460.68538724 172.01524434 465.64439208 177.03428059 473.04360962 183.28173828 C476.74989982 186.53690485 480.17869401 190.07498375 483.64453125 193.58203125 C484.39140701 194.33274902 485.13828278 195.0834668 485.90779114 195.85693359 C488.21190825 198.17294148 490.51262787 200.49227717 492.8125 202.8125 C495.87851667 205.90533593 498.94800165 208.9946713 502.01953125 212.08203125 C502.70304153 212.77383987 503.38655182 213.4656485 504.09077454 214.17842102 C507.96077396 218.06784343 511.94096257 221.75167924 516.09498596 225.33543396 C520.83630896 229.47831432 525.28575169 233.94181981 529.7668457 238.36181641 C530.97395837 239.54710093 532.18730661 240.72606511 533.40649414 241.89892578 C535.18268391 243.60852324 536.93865856 245.3367294 538.69140625 247.0703125 C539.24018936 247.59126495 539.78897247 248.11221741 540.35438538 248.6489563 C541.85375977 250.15673828 541.85375977 250.15673828 544 253 C543.96728516 255.54199219 543.96728516 255.54199219 543 258 C542.68393799 258.82902832 542.36787598 259.65805664 542.04223633 260.51220703 C541.64286865 261.41825684 541.24350098 262.32430664 540.83203125 263.2578125 C540.12651123 264.87187988 540.12651123 264.87187988 539.40673828 266.51855469 C538.88063965 267.70868164 538.35454102 268.89880859 537.8125 270.125 C536.63690761 272.79842221 535.46464427 275.47329665 534.29296875 278.1484375 C533.96824585 278.88872192 533.64352295 279.62900635 533.30895996 280.39172363 C530.81129771 286.10171498 528.36412833 291.83216833 525.93211365 297.57040405 C523.98996969 302.15213394 522.03901964 306.73009589 520.08798218 311.30804443 C519.11827647 313.58946932 518.15242814 315.87253789 517.19058228 318.1572876 C515.81741818 321.41680262 514.42967994 324.66977492 513.0390625 327.921875 C512.635168 328.89073639 512.2312735 329.85959778 511.81513977 330.8578186 C508.01269988 339.68133238 502.99762631 347.48315992 496.0625 354.1875 C495.21171875 355.0125 494.3609375 355.8375 493.484375 356.6875 C490.66550167 359.31135693 487.78900665 361.85189211 484.86328125 364.35546875 C482.99548207 366.00398752 481.24544376 367.72303581 479.5 369.5 C476.55094767 372.49544192 473.46170155 375.25770867 470.28125 378.00390625 C468.10290465 379.90995843 465.95414107 381.8442347 463.82641602 383.80664062 C462.80583665 384.73752224 461.77199689 385.65404478 460.72631836 386.55664062 C457.85307355 389.07723014 455.60202625 391.46574746 453.53515625 394.69140625 C450.68735055 398.77078409 447.91807112 401.68143706 443 403 C434.35182252 402.7336111 425.84026771 399.38015184 417.6730957 396.72563171 C409.67436199 394.14577686 401.59128826 391.90587061 393.48046875 389.7109375 C392.79740725 389.52589598 392.11434574 389.34085445 391.4105854 389.15020561 C388.62174088 388.39511128 385.83264144 387.64097208 383.04309559 386.88847256 C375.60030856 384.88037588 368.16684063 382.83888473 360.734375 380.79296875 C359.55824142 380.47020966 358.38210785 380.14745056 357.17033386 379.81491089 C355.47291801 379.34808395 355.47291801 379.34808395 353.74121094 378.87182617 C352.63152451 378.56922379 351.52183807 378.2666214 350.37852478 377.95484924 C348.05835036 377.29911429 345.74851805 376.60599035 343.44874573 375.88194275 C335.78172981 373.50561464 329.18687652 372.49991951 321.18359375 372.79296875 C318.9061751 372.83962959 316.62865587 372.88155502 314.35107422 372.91943359 C313.15826843 372.94084412 311.96546265 372.96225464 310.73651123 372.98431396 C306.2100877 373.00331609 301.70241859 372.83470122 297.180336 372.65135002 C258.91172357 370.20418396 258.91172357 370.20418396 225.65388489 385.86116028 C218.43309851 392.91380559 212.22425131 400.77349864 206.42428589 409.01296997 C201.6275236 415.70496263 196.12862369 421.89242194 190.6875 428.0625 C174.16839859 447.30728261 163.22561131 470.0089325 153 493 C149.13057353 490.86673624 145.60224408 488.91870413 142.375 485.875 C139.00072234 482.82517212 135.49139814 480.00470983 131.875 477.25 C125.45367867 472.35475941 119.09886522 467.38033323 112.75732422 462.38232422 C111.02979098 461.02343381 109.29874535 459.66916291 107.56640625 458.31640625 C101.36151742 453.46616176 95.2169085 448.5540492 89.125 443.5625 C83.20280883 438.71525157 77.15660404 434.07811729 71.00708008 429.52416992 C65.47505411 425.40679394 60.12507003 421.09154775 54.79345703 416.71923828 C49.67258774 412.52554237 44.46352932 408.46968987 39.203125 404.453125 C30.85033812 398.072952 22.63341936 391.51717438 14.4375 384.9375 C9.28386959 380.8012165 4.08659004 376.73047239 -1.16088867 372.71411133 C-10.67182695 365.43114334 -20.04614612 357.97635749 -29.3918457 350.4831543 C-35.89179426 345.27595739 -42.44311079 340.13518088 -49 335 C-58.71427846 327.39203601 -68.37675544 319.72285593 -78 312 C-76.55221377 307.00975811 -74.40540406 302.91514239 -71.75 298.5 C-71.31598877 297.77224365 -70.88197754 297.0444873 -70.43481445 296.29467773 C-60.65696988 280.01873655 -50.34724634 264.224662 -39 249 C-38.22245361 247.95223389 -38.22245361 247.95223389 -37.42919922 246.88330078 C-33.97818935 242.23617154 -30.49947213 237.61072512 -27 233 C-26.55527344 232.41347656 -26.11054688 231.82695312 -25.65234375 231.22265625 C-16.55213261 219.24297532 -6.98865427 207.70680723 2.92504883 196.39453125 C4.52390714 194.54941979 6.10327864 192.69258157 7.67456055 190.82421875 C15.9621951 181.03182706 24.81746667 171.90460487 33.92211914 162.87207031 C36.33221479 160.48043622 38.73400654 158.08069029 41.13476562 155.6796875 C42.68963048 154.129733 44.24495262 152.58023707 45.80078125 151.03125 C46.50616531 150.32697876 47.21154938 149.62270752 47.93830872 148.89709473 C51.98119535 144.89224063 56.11752888 141.1287165 60.53825378 137.54187012 C62.34399969 135.99124987 62.34399969 135.99124987 62 133 C60.14704904 131.04541996 60.14704904 131.04541996 57.6875 129.0625 C19.74694637 95.87787493 5.92852923 48.52033136 0 0 Z " fill="#FEFEFE" transform="translate(282,260)"/>
<path d="M0 0 C9.81576088 1.47970352 19.60872927 3.08163846 29.3984375 4.72265625 C30.97983321 4.98707408 32.56124432 5.25139981 34.14266968 5.51564026 C37.44392533 6.06731531 40.74511704 6.61937069 44.04626465 7.17169189 C51.15006964 8.35991757 58.2546953 9.54321534 65.35928917 10.72671318 C69.39394325 11.39887433 73.4285344 12.07141299 77.46313477 12.74389648 C83.54767142 13.75800806 89.63222925 14.77199252 95.71680546 15.78586674 C100.39584542 16.5655396 105.07487771 17.34525857 109.75390625 18.125 C110.69637899 18.28205854 111.63885174 18.43911709 112.60988426 18.60093498 C125.39460362 20.73153032 138.17900651 22.86401452 150.96313477 24.99815369 C157.9331212 26.16169189 164.90320227 27.32466275 171.87330246 28.48751926 C176.61159574 29.27807496 181.34983908 30.06892713 186.08795166 30.86056519 C190.54061992 31.60449574 194.9934009 32.34774744 199.44629097 33.0903492 C201.18525268 33.38038101 202.92418903 33.67056493 204.66309929 33.96090508 C214.64709052 35.62718664 224.63457462 37.26885436 234.62866211 38.87353516 C236.57124498 39.18631454 238.51382617 39.49910437 240.45640564 39.81190491 C244.11229252 40.40035561 247.76899032 40.98334357 251.42628479 41.56297302 C272.83160099 44.98560303 293.7833474 50.12079621 314.7878418 55.44311523 C322.58706266 57.41717348 330.40635763 59.27372258 338.25 61.0625 C340.38159813 61.55430751 342.51310933 62.04649191 344.64453125 62.5390625 C347.85615704 63.28093072 351.06872758 64.01525464 354.28662109 64.72949219 C369.47082486 68.10776892 381.01966419 71.03776156 391.85546875 82.8125 C393.74012749 84.73492058 395.66772835 86.46548049 397.70703125 88.21875 C402.96073498 92.7706254 407.77676891 97.72716543 412.64453125 102.68359375 C416.6042827 106.6867794 420.6500242 110.48520976 424.91503906 114.15966797 C428.96026777 117.73026914 432.78795262 121.52113175 436.625 125.3125 C437.85476563 126.49875977 437.85476563 126.49875977 439.109375 127.70898438 C449.47992526 137.97116072 453.61926297 148.60427117 457.59570312 162.48046875 C460.68538724 172.01524434 465.64439208 177.03428059 473.04360962 183.28173828 C476.74989982 186.53690485 480.17869401 190.07498375 483.64453125 193.58203125 C484.39140701 194.33274902 485.13828278 195.0834668 485.90779114 195.85693359 C488.21190825 198.17294148 490.51262787 200.49227717 492.8125 202.8125 C495.87851667 205.90533593 498.94800165 208.9946713 502.01953125 212.08203125 C502.70304153 212.77383987 503.38655182 213.4656485 504.09077454 214.17842102 C507.96077396 218.06784343 511.94096257 221.75167924 516.09498596 225.33543396 C520.83630896 229.47831432 525.28575169 233.94181981 529.7668457 238.36181641 C530.97395837 239.54710093 532.18730661 240.72606511 533.40649414 241.89892578 C535.18268391 243.60852324 536.93865856 245.3367294 538.69140625 247.0703125 C539.24018936 247.59126495 539.78897247 248.11221741 540.35438538 248.6489563 C541.85375977 250.15673828 541.85375977 250.15673828 544 253 C543.96728516 255.54199219 543.96728516 255.54199219 543 258 C542.68393799 258.82902832 542.36787598 259.65805664 542.04223633 260.51220703 C541.64286865 261.41825684 541.24350098 262.32430664 540.83203125 263.2578125 C540.12651123 264.87187988 540.12651123 264.87187988 539.40673828 266.51855469 C538.88063965 267.70868164 538.35454102 268.89880859 537.8125 270.125 C536.63690761 272.79842221 535.46464427 275.47329665 534.29296875 278.1484375 C533.96824585 278.88872192 533.64352295 279.62900635 533.30895996 280.39172363 C530.81129771 286.10171498 528.36412833 291.83216833 525.93211365 297.57040405 C523.98996969 302.15213394 522.03901964 306.73009589 520.08798218 311.30804443 C519.11827647 313.58946932 518.15242814 315.87253789 517.19058228 318.1572876 C515.81741818 321.41680262 514.42967994 324.66977492 513.0390625 327.921875 C512.635168 328.89073639 512.2312735 329.85959778 511.81513977 330.8578186 C508.01269988 339.68133238 502.99762631 347.48315992 496.0625 354.1875 C495.21171875 355.0125 494.3609375 355.8375 493.484375 356.6875 C490.66550167 359.31135693 487.78900665 361.85189211 484.86328125 364.35546875 C482.99548207 366.00398752 481.24544376 367.72303581 479.5 369.5 C476.55094767 372.49544192 473.46170155 375.25770867 470.28125 378.00390625 C468.10290465 379.90995843 465.95414107 381.8442347 463.82641602 383.80664062 C462.80583665 384.73752224 461.77199689 385.65404478 460.72631836 386.55664062 C457.85307355 389.07723014 455.60202625 391.46574746 453.53515625 394.69140625 C450.68735055 398.77078409 447.91807112 401.68143706 443 403 C434.35182252 402.7336111 425.84026771 399.38015184 417.6730957 396.72563171 C409.67436199 394.14577686 401.59128826 391.90587061 393.48046875 389.7109375 C392.79740725 389.52589598 392.11434574 389.34085445 391.4105854 389.15020561 C388.62174088 388.39511128 385.83264144 387.64097208 383.04309559 386.88847256 C375.60030856 384.88037588 368.16684063 382.83888473 360.734375 380.79296875 C359.55824142 380.47020966 358.38210785 380.14745056 357.17033386 379.81491089 C355.47291801 379.34808395 355.47291801 379.34808395 353.74121094 378.87182617 C352.63152451 378.56922379 351.52183807 378.2666214 350.37852478 377.95484924 C348.05835036 377.29911429 345.74851805 376.60599035 343.44874573 375.88194275 C335.78172981 373.50561464 329.18687652 372.49991951 321.18359375 372.79296875 C318.9061751 372.83962959 316.62865587 372.88155502 314.35107422 372.91943359 C313.15826843 372.94084412 311.96546265 372.96225464 310.73651123 372.98431396 C306.2100877 373.00331609 301.70241859 372.83470122 297.180336 372.65135002 C258.91172357 370.20418396 258.91172357 370.20418396 225.65388489 385.86116028 C218.43309851 392.91380559 212.22425131 400.77349864 206.42428589 409.01296997 C201.6275236 415.70496263 196.12862369 421.89242194 190.6875 428.0625 C174.16839859 447.30728261 163.22561131 470.0089325 153 493 C149.13057353 490.86673624 145.60224408 488.91870413 142.375 485.875 C139.00072234 482.82517212 135.49139814 480.00470983 131.875 477.25 C125.45367867 472.35475941 119.09886522 467.38033323 112.75732422 462.38232422 C111.02979098 461.02343381 109.29874535 459.66916291 107.56640625 458.31640625 C101.36151742 453.46616176 95.2169085 448.5540492 89.125 443.5625 C83.20280883 438.71525157 77.15660404 434.07811729 71.00708008 429.52416992 C65.47505411 425.40679394 60.12507003 421.09154775 54.79345703 416.71923828 C49.67258774 412.52554237 44.46352932 408.46968987 39.203125 404.453125 C30.85033812 398.072952 22.63341936 391.51717438 14.4375 384.9375 C9.28386959 380.8012165 4.08659004 376.73047239 -1.16088867 372.71411133 C-10.67182695 365.43114334 -20.04614612 357.97635749 -29.3918457 350.4831543 C-35.89179426 345.27595739 -42.44311079 340.13518088 -49 335 C-58.71427846 327.39203601 -68.37675544 319.72285593 -78 312 C-76.55221377 307.00975811 -74.40540406 302.91514239 -71.75 298.5 C-71.31598877 297.77224365 -70.88197754 297.0444873 -70.43481445 296.29467773 C-60.65696988 280.01873655 -50.34724634 264.224662 -39 249 C-38.22245361 247.95223389 -38.22245361 247.95223389 -37.42919922 246.88330078 C-33.97818935 242.23617154 -30.49947213 237.61072512 -27 233 C-26.55527344 232.41347656 -26.11054688 231.82695312 -25.65234375 231.22265625 C-16.55213261 219.24297532 -6.98865427 207.70680723 2.92504883 196.39453125 C4.52390714 194.54941979 6.10327864 192.69258157 7.67456055 190.82421875 C15.9621951 181.03182706 24.81746667 171.90460487 33.92211914 162.87207031 C36.33221479 160.48043622 38.73400654 158.08069029 41.13476562 155.6796875 C42.68963048 154.129733 44.24495262 152.58023707 45.80078125 151.03125 C46.50616531 150.32697876 47.21154938 149.62270752 47.93830872 148.89709473 C51.98119535 144.89224063 56.11752888 141.1287165 60.53825378 137.54187012 C62.34399969 135.99124987 62.34399969 135.99124987 62 133 C60.14704904 131.04541996 60.14704904 131.04541996 57.6875 129.0625 C19.74694637 95.87787493 5.92852923 48.52033136 0 0 Z M55 52 C65.21112822 81.1554582 87.64598586 103.46851993 113 120 C113.92941406 120.61617188 114.85882813 121.23234375 115.81640625 121.8671875 C129.6935341 130.51195567 145.61490723 136.62237117 161 142 C161 142.33 161 142.66 161 143 C160.37770508 143.08975098 159.75541016 143.17950195 159.11425781 143.27197266 C133.98789268 146.97407746 106.1593796 152.15897396 87 170 C86.12504883 170.79212891 85.25009766 171.58425781 84.34863281 172.40039062 C77.16347962 178.91433509 70.21524641 185.62843029 63.37084961 192.4987793 C61.67480274 194.20023778 59.97340179 195.89621263 58.27148438 197.59179688 C52.63275445 203.22709155 47.16460641 208.92136841 42 215 C40.54554483 216.60768373 39.08779105 218.21239715 37.625 219.8125 C33.74649273 224.10959827 30.07134032 228.53758754 26.43359375 233.0390625 C24.24842852 235.69773865 22.01601361 238.30062263 19.75537109 240.89453125 C5.36465842 257.43708257 -7.56805119 275.32481925 -19.8125 293.5 C-20.23942139 294.12922363 -20.66634277 294.75844727 -21.10620117 295.40673828 C-23.30075623 298.44082327 -23.30075623 298.44082327 -24 302 C-22.15907334 303.56264705 -20.31463476 305.00597002 -18.375 306.4375 C-17.17388089 307.34165368 -15.97338053 308.24662982 -14.7734375 309.15234375 C-14.14920898 309.62140137 -13.52498047 310.09045898 -12.88183594 310.57373047 C-9.88916837 312.84191469 -6.94547809 315.17107503 -4 317.5 C0.45416618 321.01266012 4.93152849 324.4915947 9.4375 327.9375 C14.79778146 332.04135046 20.07767332 336.23947042 25.34130859 340.46630859 C31.28209838 345.23511622 37.26910787 349.94331807 43.26611328 354.64111328 C46.17966833 356.92453308 49.08961354 359.21254405 52 361.5 C53.17186929 362.42058018 54.34374429 363.34115311 55.515625 364.26171875 C57.79782527 366.05478524 60.07902056 367.849118 62.359375 369.64453125 C68.88985886 374.78426392 75.43749359 379.90120342 82 385 C89.12492496 390.53577257 96.2299527 396.09592732 103.31884766 401.67773438 C105.02739805 403.02154921 106.73800761 404.36270038 108.44921875 405.703125 C115.34150593 411.10443155 122.20223154 416.54270327 129.02709961 422.02905273 C130.18224788 422.95647402 131.34001541 423.88064702 132.50097656 424.80078125 C133.76654614 425.81323691 135.00740349 426.85646847 136.2421875 427.90625 C136.82226562 428.2671875 137.40234375 428.628125 138 429 C141.93845043 427.68718319 142.90768197 425.32601605 144.9375 421.9375 C152.52295391 409.7334322 161.19891299 398.50524278 171 388 C172.1724425 386.6717427 173.33936217 385.33858459 174.5 384 C177.15582529 380.94980622 179.85119453 377.9384942 182.5625 374.9375 C186.10696445 371.01067037 189.57917903 367.03481448 193 363 C191.72763423 359.55366327 190.25665009 356.67130364 188.1640625 353.65625 C187.60090332 352.83374756 187.03774414 352.01124512 186.45751953 351.16381836 C185.85278809 350.2847583 185.24805664 349.40569824 184.625 348.5 C178.14117875 338.91706162 172.31134599 329.09635059 166.67919922 318.99609375 C163.731574 313.7368241 160.73234396 308.5069443 157.73797607 303.27420044 C156.72203039 301.49787451 155.70768555 299.72064485 154.69384766 297.94311523 C150.50412681 290.60395676 146.27154543 283.29181337 142 276 C149.52905736 280.19964226 156.72379952 284.75332926 163.875 289.5625 C181.62802593 301.49407731 199.76376971 312.82403501 218 324 C218.75555176 324.46374023 219.51110352 324.92748047 220.28955078 325.40527344 C222.35663725 326.67113851 224.42732001 327.93081941 226.5 329.1875 C227.09288818 329.55012939 227.68577637 329.91275879 228.29663086 330.28637695 C234.12862231 333.79715236 238.07723799 335.27546781 244.94799805 334.95166016 C245.62872879 334.9226915 246.30945953 334.89372284 247.01081848 334.86387634 C249.2616998 334.76572239 251.51154502 334.65219734 253.76171875 334.5390625 C255.35133432 334.46781519 256.94100177 334.3977172 258.53071594 334.32870483 C262.73141272 334.14401756 266.93143933 333.9471268 271.13140869 333.74664307 C284.04407181 333.13213609 296.95802267 332.5514062 309.87670135 332.07806015 C311.88568145 332.00420276 313.89453634 331.92696231 315.90338135 331.84951782 C330.55942871 331.3411949 343.05716081 332.41379304 357 336.9375 C358.65744886 337.44442888 360.31617929 337.94718379 361.97607422 338.44604492 C364.51052442 339.20842898 367.04389903 339.9732423 369.57345581 340.75172424 C378.02774117 343.35175268 386.56296504 345.59898768 395.125 347.8125 C397.89402991 348.5321163 400.66225085 349.25474953 403.4296875 349.98046875 C404.40566895 350.23637535 404.40566895 350.23637535 405.40136719 350.49745178 C409.47834424 351.5749284 413.52878513 352.72254515 417.5703125 353.92578125 C418.54468262 354.21541748 419.51905273 354.50505371 420.52294922 354.8034668 C422.26514766 355.32830992 424.00417195 355.8638877 425.73876953 356.41333008 C430.18546476 357.75744694 433.40824154 358.37752754 438 357 C443.30501901 354.08526522 447.61055681 349.5746155 451.75 345.22265625 C453.68208335 343.31405308 455.65298473 341.53613472 457.703125 339.7578125 C474.56717946 326.09876834 474.56717946 326.09876834 483 307 C483.17789062 306.11699219 483.35578125 305.23398437 483.5390625 304.32421875 C485.46999285 290.39861088 484.65566003 277.84642777 479 265 C479 264.34 479 263.68 479 263 C480.782129 261.55925285 482.62660276 260.19489351 484.5 258.875 C486.03140625 257.78832031 486.03140625 257.78832031 487.59375 256.6796875 C488.3878125 256.12539063 489.181875 255.57109375 490 255 C484.94836904 248.80617031 479.31494458 243.26695759 473.60956192 237.68722343 C470.61949594 234.75883714 467.64528009 231.81438971 464.66796875 228.87304688 C460.9018511 225.15462664 457.13146019 221.44085384 453.34521484 217.74291992 C450.26446197 214.73319391 447.19924752 211.70835547 444.14321518 208.67354012 C442.98864745 207.53238875 441.82874096 206.39660839 440.66302872 205.2668438 C429.50162876 194.44023177 422.47383816 183.21105873 417.875 168.1875 C413.51991781 154.04774625 406.27199668 145.51311342 395.234375 136.015625 C392.56014444 133.60320722 390.0284696 131.06270252 387.5 128.5 C383.80339404 124.75859817 380.04304851 121.16126452 376.03125 117.7578125 C374.50051721 116.43313989 373.00632395 115.06607029 371.53125 113.6796875 C370.6753125 112.87789062 369.819375 112.07609375 368.9375 111.25 C368.16277344 110.51265625 367.38804687 109.7753125 366.58984375 109.015625 C359.78392412 103.71871017 351.50255824 102.59703286 343.25 100.8125 C341.88524165 100.51202428 340.52066188 100.21073648 339.15625 99.90869141 C337.00516199 99.43251484 334.85398799 98.95678451 332.70227051 98.48345947 C327.45692186 97.32866215 322.21893055 96.14413514 316.984375 94.94140625 C316.2331134 94.76883804 315.48185181 94.59626984 314.70782471 94.41847229 C311.78014798 93.74542346 308.85264965 93.07160611 305.92541504 92.39663696 C301.72636048 91.42919287 297.52466132 90.47433604 293.3208313 89.52786255 C290.87658351 88.97192948 288.43645 88.39959785 285.99584961 87.82788086 C269.75035909 84.08855489 253.34918319 81.59560841 236.87176514 79.15554428 C232.92730162 78.5695892 228.98417724 77.97476994 225.04101562 77.38012695 C224.24280584 77.25977805 223.44459606 77.13942915 222.6221981 77.01543331 C221.00081752 76.7709661 219.37944086 76.52647285 217.75806808 76.28195381 C215.31315301 75.91357233 212.86809515 75.54615166 210.42300415 75.17893982 C194.94252569 72.85216138 179.47648911 70.43617845 164.01228714 68.00393295 C143.96714018 64.85182562 123.91789487 61.73599124 103.83984375 58.79956055 C97.29619967 57.83757831 90.79192776 56.81657922 84.31591797 55.45996094 C79.98637347 54.60007671 75.61924096 53.9946608 71.25 53.375 C70.34378906 53.2409375 69.43757813 53.106875 68.50390625 52.96875 C63.96269168 52.31905799 59.60181813 51.83238411 55 52 Z " fill="#0F100F" transform="translate(282,260)"/>
<path d="M0 0 C7.93584776 -0.2969543 15.70775308 0.81930257 23.5625 1.8125 C25.05081799 1.99702386 26.53918116 2.18118359 28.02758789 2.36499023 C37.24098594 3.50728994 46.44752005 4.7005176 55.65063477 5.92285156 C62.925161 6.88121148 70.2100702 7.73037813 77.5 8.5625 C78.60069824 8.69108398 79.70139648 8.81966797 80.83544922 8.95214844 C85.44071632 9.48934821 90.04126303 10.01640355 94.66015625 10.421875 C102.52602575 11.20924932 108.2243989 12.40452259 114 18 C119.97756078 25.99816943 124.12799217 35.07896004 128.375 44.0625 C129.7627869 46.97464473 131.15595502 49.88418989 132.55078125 52.79296875 C132.90798752 53.53899353 133.26519379 54.28501831 133.63322449 55.0536499 C136.30407296 60.60977371 139.06022506 66.11881876 141.85546875 71.61328125 C142.2511908 72.39335037 142.64691284 73.17341949 143.05462646 73.97712708 C144.60420964 77.03034746 146.15412415 80.08318277 147.72357178 83.12625122 C148.80475467 85.22314645 149.87404063 87.3257344 150.94140625 89.4296875 C151.26763474 90.05317581 151.59386322 90.67666412 151.92997742 91.31904602 C152.69675097 92.8431067 153.3580757 94.41929262 154 96 C153.67 96.99 153.34 97.98 153 99 C152.06800781 98.18917969 151.13601563 97.37835938 150.17578125 96.54296875 C138.26307486 86.19093388 126.31767264 75.8705891 114 66 C113.42950928 65.50790039 112.85901855 65.01580078 112.27124023 64.50878906 C109.38411199 62.59086446 106.66881923 61.87676544 103.3203125 60.984375 C101.98429385 60.61617974 100.64835921 60.24767955 99.3125 59.87890625 C97.23671305 59.31679478 95.15988642 58.75924249 93.08105469 58.20849609 C79.48181774 54.5809406 67.55388011 49.47740066 56.25 40.875 C54.72023584 39.74193936 53.1902822 38.60913452 51.66015625 37.4765625 C50.8933252 36.90325195 50.12649414 36.32994141 49.33642578 35.73925781 C45.48203635 32.87001326 41.58486736 30.06044227 37.6875 27.25 C36.93533203 26.70682129 36.18316406 26.16364258 35.40820312 25.60400391 C18.30605681 12.84944817 18.30605681 12.84944817 0 2 C0 1.34 0 0.68 0 0 Z " fill="#101010" transform="translate(556,412)"/>
<path d="M0 0 C3.17119503 1.09351553 4.00783543 2.0126988 5.8125 4.9375 C7 8 7 8 6 11 C3.03 8.36 0.06 5.72 -3 3 C-2.01 2.67 -1.02 2.34 0 2 C0 1.34 0 0.68 0 0 Z " fill="#0C0C0C" transform="translate(703,500)"/>
<path d="M0 0 C0.66666667 1.33333333 1.33333333 2.66666667 2 4 C2.556875 4.9590625 2.556875 4.9590625 3.125 5.9375 C4.17440531 8.41109822 4.14780359 10.33953538 4 13 C0.82781157 9.37464179 -0.42902597 5.48849722 -2 1 C-1.34 0.67 -0.68 0.34 0 0 Z " fill="#191919" transform="translate(704,435)"/>
<path d="M0 0 C1.423125 0.495 1.423125 0.495 2.875 1 C5.77062452 2.10159191 5.77062452 2.10159191 8 2 C8 2.66 8 3.32 8 4 C9.65 4.33 11.3 4.66 13 5 C8.98417068 6.60633173 5.91324696 5.52181826 2 4 C0.5625 1.875 0.5625 1.875 0 0 Z " fill="#171717" transform="translate(638,636)"/>
<path d="M0 0 C2.97 0.495 2.97 0.495 6 1 C6 1.66 6 2.32 6 3 C7.32 3.33 8.64 3.66 10 4 C10 4.66 10 5.32 10 6 C5.56909529 4.79157144 3.01887244 3.48331435 0 0 Z " fill="#1A1A1A" transform="translate(624,459)"/>
<path d="M0 0 C2.50298434 2.93828597 3.46930939 5.17902761 4 9 C2.35 7.68 0.7 6.36 -1 5 C-0.67 3.35 -0.34 1.7 0 0 Z " fill="#282727" transform="translate(706,502)"/>
</svg>
